<svg width="0" height="0" class="hidden">
  <symbol xmlns="http://www.w3.org/2000/svg" xmlns:xlink="http://www.w3.org/1999/xlink" version="1.1" viewBox="0 0 18 18" id="icon-search (1)">
    <g id="surface1">
      <path d="M 18.753255 10.632378 C 18.753255 5.724392 14.729167 1.747396 9.766276 1.747396 C 4.803385 1.747396 0.779297 5.724392 0.779297 10.632378 C 0.779297 15.53559 4.803385 19.512587 9.766276 19.512587 C 14.729167 19.512587 18.753255 15.53559 18.753255 10.632378 Z M 18.753255 10.632378 " transform="matrix(0.857143,0,0,0.818182,0,0)"></path>
      <path d="M 16.01888 17.268663 L 19.541667 20.744358 " transform="matrix(0.857143,0,0,0.818182,0,0)"></path>
    </g>
  </symbol>
  <symbol xmlns="http://www.w3.org/2000/svg" xmlns:xlink="http://www.w3.org/1999/xlink" version="1.1" viewBox="0 0 18 18" id="icon-cart (1)">
    <g id="surface1">
      <path d="M 0.998047 1.176215 L 3.080729 1.532118 L 4.042318 12.873264 C 4.119792 13.797743 4.903646 14.509549 5.842448 14.505208 L 16.752604 14.505208 C 17.650391 14.505208 18.411458 13.854167 18.539062 12.977431 L 19.486979 6.497396 C 19.591797 5.772569 19.08138 5.099826 18.352214 4.99566 C 18.288411 4.986979 3.413411 4.978299 3.413411 4.978299 " transform="matrix(0.857143,0,0,0.9,0,0)"></path>
      <path d="M 12.373047 8.632812 L 15.148438 8.632812 " transform="matrix(0.857143,0,0,0.9,0,0)"></path>
      <path d="M 5.404948 17.929688 C 5.705729 17.929688 5.947266 18.172743 5.947266 18.467882 C 5.947266 18.767361 5.705729 19.010417 5.404948 19.010417 C 5.104167 19.010417 4.858073 18.767361 4.858073 18.467882 C 4.858073 18.172743 5.104167 17.929688 5.404948 17.929688 Z M 5.404948 17.929688 " transform="matrix(0.857143,0,0,0.9,0,0)"></path>
      <path d="M 16.684245 17.929688 C 16.985026 17.929688 17.23112 18.172743 17.23112 18.467882 C 17.23112 18.767361 16.985026 19.010417 16.684245 19.010417 C 16.383464 19.010417 16.141927 18.767361 16.141927 18.467882 C 16.141927 18.172743 16.383464 17.929688 16.684245 17.929688 Z M 16.684245 17.929688 " transform="matrix(0.857143,0,0,0.9,0,0)"></path>
    </g>
  </symbol>
</svg>