<svg width="0" height="0" class="hidden">
  <symbol fill="none" xmlns="http://www.w3.org/2000/svg" viewBox="0 0 34 34" id="icon-resturent">
    <path
      d="M32.4062 28.1562H28.6875V17.4841C29.016 17.4166 29.3259 17.2783 29.5956 17.0789C29.8653 16.8795 30.0884 16.6238 30.2492 16.3295C30.4101 16.0352 30.505 15.7094 30.5273 15.3747C30.5495 15.0401 30.4987 14.7046 30.3782 14.3916L28.6875 9.9948V1.59375C28.6875 1.52398 28.6738 1.45489 28.6471 1.39043C28.6204 1.32597 28.5813 1.26739 28.5319 1.21806C28.4826 1.16872 28.424 1.12959 28.3596 1.1029C28.2951 1.07621 28.226 1.06248 28.1562 1.0625H5.84375C5.77398 1.06248 5.70489 1.07621 5.64043 1.1029C5.57597 1.12959 5.51739 1.16872 5.46806 1.21806C5.41872 1.26739 5.37959 1.32597 5.3529 1.39043C5.32621 1.45489 5.31248 1.52398 5.3125 1.59375V9.9948L3.6218 14.3916C3.50132 14.7046 3.45045 15.0401 3.47272 15.3747C3.49499 15.7094 3.58987 16.0352 3.75076 16.3295C3.91165 16.6238 4.1347 16.8795 4.40439 17.0789C4.67409 17.2783 4.98397 17.4166 5.3125 17.4841V28.1562H1.59375C1.52398 28.1562 1.45489 28.17 1.39043 28.1967C1.32597 28.2233 1.26739 28.2625 1.21806 28.3118C1.16872 28.3611 1.12959 28.4197 1.1029 28.4842C1.07621 28.5486 1.06248 28.6177 1.0625 28.6875V32.4062C1.06248 32.476 1.07621 32.5451 1.1029 32.6096C1.12959 32.674 1.16872 32.7326 1.21806 32.7819C1.26739 32.8313 1.32597 32.8704 1.39043 32.8971C1.45489 32.9238 1.52398 32.9375 1.59375 32.9375H32.4062C32.476 32.9375 32.5451 32.9238 32.6096 32.8971C32.674 32.8704 32.7326 32.8313 32.7819 32.7819C32.8313 32.7326 32.8704 32.674 32.8971 32.6096C32.9238 32.5451 32.9375 32.476 32.9375 32.4062V28.6875C32.9375 28.6177 32.9238 28.5486 32.8971 28.4842C32.8704 28.4197 32.8313 28.3611 32.7819 28.3118C32.7326 28.2625 32.674 28.2233 32.6096 28.1967C32.5451 28.17 32.476 28.1562 32.4062 28.1562ZM26.5625 28.1562V16.8254C26.8532 17.1267 27.2205 17.3432 27.625 17.4515V28.1562H26.5625ZM22.3125 28.6875V31.875H20.1875V28.1562H21.25C21.3909 28.1562 21.526 28.1003 21.6256 28.0006C21.7253 27.901 21.7812 27.7659 21.7812 27.625V26.0312C21.7812 25.8904 21.7253 25.7552 21.6256 25.6556C21.526 25.556 21.3909 25.5 21.25 25.5H18.0625C17.9216 25.5 17.7865 25.556 17.6869 25.6556C17.5872 25.7552 17.5313 25.8904 17.5312 26.0312V27.625C17.5313 27.7659 17.5872 27.901 17.6869 28.0006C17.7865 28.1003 17.9216 28.1562 18.0625 28.1562H19.125V31.875H17V28.6875C17 28.6177 16.9863 28.5486 16.9596 28.4842C16.9329 28.4197 16.8938 28.3611 16.8444 28.3118C16.7951 28.2625 16.7365 28.2233 16.6721 28.1967C16.6076 28.17 16.5385 28.1562 16.4688 28.1562H15.4062V26.5625C15.4063 26.4927 15.3925 26.4236 15.3658 26.3592C15.3392 26.2947 15.3 26.2361 15.2507 26.1868C15.2014 26.1375 15.1428 26.0983 15.0783 26.0717C15.0139 26.045 14.9448 26.0312 14.875 26.0312H13.8125V17.4828C14.3275 17.3762 14.7907 17.0969 15.1254 16.6912C15.1579 16.7317 15.1924 16.7709 15.2289 16.8094C15.444 17.0384 15.7039 17.2207 15.9925 17.3449C16.2811 17.4691 16.5922 17.5325 16.9064 17.5312H17.0936C17.4078 17.5325 17.7189 17.4691 18.0075 17.3449C18.2961 17.2207 18.556 17.0384 18.771 16.8094C18.8076 16.7709 18.8421 16.7317 18.8746 16.6912C18.9514 16.7837 19.0351 16.8701 19.125 16.9497V18.5938C18.4207 18.5945 17.7455 18.8745 17.2475 19.3725C16.7495 19.8705 16.4695 20.5457 16.4687 21.25C16.4687 21.3198 16.4825 21.3889 16.5091 21.4533C16.5358 21.5178 16.575 21.5764 16.6243 21.6257C16.6736 21.675 16.7322 21.7142 16.7967 21.7408C16.8611 21.7675 16.9302 21.7813 17 21.7812H22.3125C22.3823 21.7813 22.4514 21.7675 22.5158 21.7408C22.5803 21.7142 22.6389 21.675 22.6882 21.6257C22.7375 21.5764 22.7767 21.5178 22.8033 21.4533C22.83 21.3889 22.8438 21.3198 22.8437 21.25C22.843 20.5457 22.563 19.8705 22.065 19.3725C21.567 18.8745 20.8918 18.5945 20.1875 18.5938V17.4828C20.3419 17.5151 20.4992 17.5314 20.657 17.5312H20.823C21.1583 17.5315 21.4896 17.4587 21.7938 17.3178C22.0981 17.177 22.368 16.9716 22.5848 16.7158C22.5987 16.6998 22.612 16.6832 22.6246 16.6666C22.841 16.9373 23.1157 17.1557 23.4282 17.3054C23.7407 17.4551 24.083 17.5323 24.4295 17.5312H24.5325C24.8663 17.5319 25.1964 17.4603 25.5 17.3214V26.0312H24.4375C24.3677 26.0312 24.2986 26.045 24.2342 26.0717C24.1697 26.0983 24.1111 26.1375 24.0618 26.1868C24.0125 26.2361 23.9733 26.2947 23.9467 26.3592C23.92 26.4236 23.9062 26.4927 23.9062 26.5625V28.1562H22.8438C22.774 28.1562 22.7049 28.17 22.6404 28.1967C22.576 28.2233 22.5174 28.2625 22.4681 28.3118C22.4187 28.3611 22.3796 28.4197 22.3529 28.4842C22.3262 28.5486 22.3125 28.6177 22.3125 28.6875ZM18.5938 27.0938V26.5625H20.7188V27.0938H18.5938ZM8.26359 14.8929L9.43633 10.625H11.5925L10.8016 15.4242C10.7543 15.7163 10.6043 15.982 10.3786 16.1735C10.153 16.3649 9.86642 16.4696 9.57047 16.4688H9.46754C9.27573 16.4687 9.08651 16.4244 8.91458 16.3393C8.74265 16.2543 8.59263 16.1308 8.47618 15.9783C8.35973 15.8259 8.27997 15.6487 8.2431 15.4605C8.20623 15.2722 8.21324 15.078 8.26359 14.8929ZM8.5 17.3214C8.80362 17.4603 9.13367 17.5319 9.46754 17.5312H9.57047C9.917 17.5323 10.2593 17.4551 10.5718 17.3054C10.8843 17.1557 11.159 16.9373 11.3754 16.6666C11.388 16.6832 11.4013 16.6998 11.4152 16.7158C11.7578 17.12 12.2292 17.3939 12.75 17.4914V20.1875H8.5V17.3214ZM13.177 16.4688C12.9959 16.4688 12.817 16.4295 12.6526 16.3534C12.4883 16.2774 12.3425 16.1665 12.2253 16.0284C12.1082 15.8903 12.0225 15.7284 11.9742 15.5539C11.926 15.3794 11.9163 15.1964 11.9458 15.0178L12.6696 10.625H14.8451L14.5888 15.2894C14.5713 15.608 14.4324 15.9077 14.2007 16.1271C13.969 16.3465 13.6621 16.4687 13.343 16.4688H13.177ZM17.9994 16.0789C17.8832 16.2025 17.7429 16.3009 17.587 16.368C17.4312 16.4351 17.2633 16.4694 17.0936 16.4688H16.9064C16.7371 16.4687 16.5695 16.4342 16.4139 16.3674C16.2584 16.3005 16.118 16.2027 16.0015 16.0799C15.8849 15.9571 15.7946 15.8118 15.736 15.653C15.6774 15.4941 15.6517 15.325 15.6606 15.1559L15.909 10.625H18.0911L18.3394 15.1526V15.1559C18.3491 15.3248 18.3239 15.494 18.2654 15.6528C18.207 15.8116 18.1164 15.9566 17.9994 16.0789ZM19.4112 15.2894L19.1549 10.625H21.3304L22.0542 15.0178C22.0837 15.1964 22.0741 15.3794 22.0258 15.5539C21.9775 15.7284 21.8918 15.8903 21.7747 16.0284C21.6575 16.1665 21.5117 16.2774 21.3474 16.3534C21.183 16.4295 21.0041 16.4688 20.823 16.4688H20.657C20.3379 16.4687 20.031 16.3465 19.7993 16.1271C19.5676 15.9077 19.4287 15.608 19.4112 15.2894V15.2894ZM20.1875 19.6562C20.517 19.6566 20.8383 19.759 21.1074 19.9492C21.3764 20.1394 21.58 20.4082 21.6903 20.7188H17.6222C17.7325 20.4082 17.9361 20.1394 18.2051 19.9492C18.4742 19.759 18.7955 19.6566 19.125 19.6562H20.1875ZM25.5246 15.9774C25.4087 16.1306 25.2587 16.2548 25.0865 16.3401C24.9143 16.4254 24.7246 16.4694 24.5325 16.4688H24.4295C24.1336 16.4696 23.847 16.3649 23.6214 16.1735C23.3957 15.982 23.2457 15.7163 23.1984 15.4242L22.4075 10.625H24.5637L25.7357 14.8903C25.7357 14.8909 25.7364 14.8923 25.7364 14.8929C25.7874 15.0778 25.7947 15.2719 25.758 15.46C25.7212 15.6482 25.6413 15.8253 25.5246 15.9774ZM24.9688 27.0938H25.5V28.1562H24.9688V27.0938ZM29.3868 14.7727C29.4595 14.9618 29.4851 15.1657 29.4614 15.3668C29.4377 15.568 29.3654 15.7604 29.2508 15.9273C29.1361 16.0943 28.9825 16.2308 28.8033 16.3252C28.624 16.4195 28.4245 16.4688 28.222 16.4688C27.9488 16.4681 27.6834 16.3782 27.4661 16.2126C27.2488 16.047 27.0917 15.8149 27.0187 15.5517L25.6654 10.625H27.7917L29.3868 14.7727ZM6.375 2.125H27.625V9.5625H6.375V2.125ZM4.74937 15.9275C4.63329 15.7612 4.56011 15.5687 4.53636 15.3672C4.51261 15.1658 4.53902 14.9615 4.61324 14.7727L6.20832 10.625H8.33465L6.98129 15.5517C6.90827 15.8149 6.75115 16.047 6.53389 16.2126C6.31664 16.3782 6.05117 16.4681 5.77801 16.4688C5.57524 16.4702 5.37525 16.4216 5.1958 16.3272C5.01635 16.2328 4.863 16.0955 4.74937 15.9275ZM6.375 17.4515C6.77946 17.3432 7.14677 17.1267 7.4375 16.8254V28.1562H6.375V17.4515ZM10.625 31.875H2.125V29.2188H10.625V31.875ZM11.1562 28.1562H8.5V21.25H12.75V31.875H11.6875V28.6875C11.6875 28.6177 11.6738 28.5486 11.6471 28.4842C11.6204 28.4197 11.5813 28.3611 11.5319 28.3118C11.4826 28.2625 11.424 28.2233 11.3596 28.1967C11.2951 28.17 11.226 28.1562 11.1562 28.1562ZM13.8125 27.0938H14.3438V28.6875C14.3437 28.7573 14.3575 28.8264 14.3842 28.8908C14.4108 28.9553 14.45 29.0139 14.4993 29.0632C14.5486 29.1125 14.6072 29.1517 14.6717 29.1783C14.7361 29.205 14.8052 29.2188 14.875 29.2188H15.9375V31.875H13.8125V27.0938ZM31.875 31.875H23.375V29.2188H31.875V31.875Z"
      fill="#FF2222"></path>
    <path
      d="M20.7188 6.375H20.1424C20.031 5.723 19.72 5.12164 19.2523 4.65393C18.7846 4.18623 18.1832 3.87523 17.5312 3.76387V3.1875C17.5312 3.0466 17.4753 2.91148 17.3757 2.81185C17.276 2.71222 17.1409 2.65625 17 2.65625C16.8591 2.65625 16.724 2.71222 16.6243 2.81185C16.5247 2.91148 16.4688 3.0466 16.4688 3.1875V3.76387C15.8168 3.87523 15.2154 4.18623 14.7477 4.65393C14.28 5.12164 13.969 5.723 13.8576 6.375H13.2812C13.1404 6.375 13.0052 6.43097 12.9056 6.5306C12.806 6.63023 12.75 6.76535 12.75 6.90625C12.7506 7.46964 12.9747 8.00977 13.3731 8.40815C13.7715 8.80652 14.3116 9.03061 14.875 9.03125H19.125C19.6884 9.03061 20.2285 8.80652 20.6269 8.40815C21.0253 8.00977 21.2494 7.46964 21.25 6.90625C21.25 6.76535 21.194 6.63023 21.0944 6.5306C20.9948 6.43097 20.8596 6.375 20.7188 6.375ZM17 4.78125C17.471 4.78186 17.9285 4.93863 18.3008 5.22702C18.6732 5.51541 18.9394 5.91914 19.0578 6.375H14.9422C15.0606 5.91914 15.3268 5.51541 15.6992 5.22702C16.0715 4.93863 16.529 4.78186 17 4.78125ZM19.125 7.96875H14.875C14.6885 7.96865 14.5054 7.91951 14.3439 7.82627C14.1825 7.73302 14.0484 7.59895 13.9551 7.4375H20.0449C19.9516 7.59895 19.8175 7.73302 19.6561 7.82627C19.4946 7.91951 19.3115 7.96865 19.125 7.96875Z"
      fill="#FF2222"></path>
    <path
      d="M13.0447 5.22327C13.1174 5.17476 13.1771 5.10903 13.2184 5.03192C13.2597 4.95481 13.2813 4.86871 13.2812 4.78125V3.1875H12.2188V4.47788C12.0502 4.56391 11.8718 4.62916 11.6875 4.67219V3.1875H10.625V4.67219C10.4407 4.62915 10.2623 4.56391 10.0938 4.47788V3.1875H9.03125V4.78125C9.03125 4.86871 9.05284 4.95481 9.09411 5.03192C9.13538 5.10903 9.19505 5.17476 9.26782 5.22327C9.67658 5.49621 10.1396 5.67743 10.625 5.75448V9.03125H11.6875V5.75448C12.1729 5.67743 12.6359 5.49621 13.0447 5.22327Z"
      fill="#FF2222"></path>
    <path
      d="M22.8436 2.65625C22.3264 2.65628 21.8269 2.84494 21.4388 3.18687C21.0508 3.52879 20.8007 4.00052 20.7355 4.51362C20.6704 5.02672 20.7946 5.54597 21.0848 5.97406C21.3751 6.40214 21.8116 6.70967 22.3124 6.839V9.03125H23.3749V6.839C23.8757 6.70967 24.3121 6.40214 24.6024 5.97406C24.8926 5.54597 25.0168 5.02672 24.9517 4.51362C24.8865 4.00052 24.6364 3.52879 24.2484 3.18687C23.8603 2.84494 23.3608 2.65628 22.8436 2.65625ZM22.8436 5.84375C22.6335 5.84375 22.428 5.78144 22.2533 5.66469C22.0786 5.54794 21.9424 5.382 21.862 5.18785C21.7816 4.9937 21.7605 4.78007 21.8015 4.57397C21.8425 4.36786 21.9437 4.17854 22.0923 4.02995C22.2409 3.88136 22.4302 3.78016 22.6363 3.73917C22.8424 3.69817 23.0561 3.71921 23.2502 3.79963C23.4444 3.88005 23.6103 4.01623 23.727 4.19096C23.8438 4.36568 23.9061 4.57111 23.9061 4.78125C23.9058 5.06294 23.7937 5.33301 23.5946 5.5322C23.3954 5.73138 23.1253 5.84343 22.8436 5.84375Z"
      fill="#FF2222"></path>
  </symbol>
  <symbol fill="inherit" xmlns="http://www.w3.org/2000/svg" viewBox="0 0 44 44" id="icon-sandwich">
    <g clip-path="url(#clip0_0_263)" fill="inherit">
      <path
        d="M41.8 6.6h-1.467V5.133a2.2 2.2 0 00-2.2-2.2h-1.747L35.326.811A1.457 1.457 0 0034.012 0H33c-.81 0-1.467.657-1.467 1.467v1.466h-8.066a2.2 2.2 0 00-2.2 2.2V6.6H19.8a2.2 2.2 0 00-2.2 2.2v1.467c0 .81.657 1.466 1.467 1.466h.077l.858 7.577-3.533-.83a11.096 11.096 0 00-.576-.813L14.646 12.3a.733.733 0 00-.713-.568H9.72C7.73 9.981 5.382 9.19 3.61 9.711L2.532 8.537a1.448 1.448 0 00-1.605-.366c-.56.216-.93.755-.928 1.355v32.289A2.188 2.188 0 002.185 44h35.948c.373 0 .686-.28.728-.65l3.593-31.617h.08c.81 0 1.466-.657 1.466-1.466V8.8a2.2 2.2 0 00-2.2-2.2zM33 1.467h1.013l.734 1.466H33V1.467zM22.733 5.133c0-.405.329-.733.734-.733h14.666c.405 0 .734.328.734.733V6.6H22.733V5.133zm-2.053 15.84l.046.009.593.14.397 4.162a6.758 6.758 0 00-3.94-1.242 6.28 6.28 0 00-.411-3.848l3.315.78zm1.433 6.487l.01.008c.265.245.517.505.755.778a8.685 8.685 0 011.876 3.388c.124.437.188.89.19 1.344l-6.849-7.47c1.523.17 2.942.86 4.018 1.952zm-7.728-9.32v-.002c1.583 1.819 2.32 4.003 1.97 5.472l-7.463-8.137c1.505-.336 3.795.721 5.493 2.667zm-1.038-4.94l.586 2.497a9.342 9.342 0 00-1.913-1.154 11.558 11.558 0 00-.928-1.343h2.255zm-3.687.546h.003c.061.07.11.146.17.22a3.99 3.99 0 00-2.012.338l-3.015-3.288c1.474.021 3.398 1.058 4.854 2.73zm21.077 28.356a.716.716 0 01-.656.431H2.185a.719.719 0 01-.718-.718L1.453 9.533l14.72 16.048v.004l8.644 9.424.01.011 4.741 5.172c.017.022.034.044.053.065l.984 1.072a.716.716 0 01.132.773zm-4.54-7.757a4.59 4.59 0 00.203-1.352c.385.325.744.68 1.074 1.061.41.468.773.975 1.086 1.513.428.72.73 1.507.895 2.329l-3.257-3.551zm11.281 8.188h-5.342c.275-.76.1-1.61-.45-2.2l-.74-.806a6.691 6.691 0 00-.571-3.594h7.854l-.75 6.6zm.917-8.066h-8.8a11.218 11.218 0 00-1.009-1.375 10.69 10.69 0 00-2.512-2.136 10.145 10.145 0 00-2.09-3.676c-.22-.25-.44-.482-.671-.706l-.58-6.11a.733.733 0 00-.56-.644l-.65-.154-.154-1.333h18.86l-1.834 16.134zm2-17.6H21.203l-.58-5.134H40.98l-.583 5.134zm2.138-6.6H19.067V8.8c0-.405.328-.733.733-.733h22c.405 0 .733.328.733.733v1.467z">
      </path>
      <path
        d="M31.1 32.267c.042 0 .083-.006.124-.008.011 0 .023.008.034.008a.704.704 0 00.109-.016 3.966 3.966 0 002.899-1.568 5.1 5.1 0 00.714-4.474c-.102-.38-.195-.753-.285-1.113-.572-2.293-1.119-4.456-3.435-4.553-.024 0-.046-.004-.07-.004-.023 0-.057-.006-.09-.006-2.591 0-4.7 2.632-4.7 5.867s2.109 5.867 4.7 5.867zm.568-10.157c.758.298 1.092 1.291 1.604 3.341.092.367.187.751.293 1.14a3.656 3.656 0 01-.464 3.2 2.592 2.592 0 01-.876.734 10.656 10.656 0 00-.733-3.68c-.073-.23-.147-.45-.211-.66-.427-1.389.073-3.188.387-4.075zm-1.576.11a8.049 8.049 0 00-.212 4.393c.068.22.143.448.22.685.367 1.12.807 2.472.627 3.468-1.607-.25-2.86-2.112-2.86-4.366 0-1.947.935-3.6 2.225-4.18zM3.881 38.563l-.518.518A.733.733 0 104.4 40.118l.518-.518a.733.733 0 00-1.037-1.037zm7.012-4.937a.734.734 0 00-1.038-1.037l-.518.518a.733.733 0 101.037 1.038l.519-.519zM4.4 31.748l-.519.519a.733.733 0 101.037 1.037l.519-.519A.733.733 0 004.4 31.748zm0-5.133l-.519.518a.733.733 0 101.037 1.037l.519-.518A.733.733 0 004.4 26.615zM11 38.563l-.518.518a.733.733 0 101.037 1.037l.518-.518A.733.733 0 0011 38.563zm5.348 0l-.518.519a.734.734 0 101.037 1.036l.518-.518a.733.733 0 00-1.037-1.037z">
      </path>
    </g>
    <defs>
      <clipPath id="clip0_0_263">
        <path fill="#fff" d="M0 0h44v44H0z"></path>
      </clipPath>
    </defs>
  </symbol>
  <symbol fill="none" xmlns="http://www.w3.org/2000/svg" viewBox="0 0 21 22" id="icon-search">
    <ellipse cx="9.767" cy="10.63" rx="8.989" ry="8.884" stroke="inherit" stroke-width="1.5" stroke-linecap="round"
      stroke-linejoin="round"></ellipse>
    <path d="M16.018 17.27l3.524 3.475" stroke="inherit" stroke-width="1.5" stroke-linecap="round"
      stroke-linejoin="round"></path>
  </symbol>
  <symbol fill="none" xmlns="http://www.w3.org/2000/svg" viewBox="0 0 34 34" id="icon-time">
    <g clip-path="url(#clip0_0_379)">
      <path
        d="M31.7543 12.8812L32.7503 11.8853C33.0383 11.5974 33.1969 11.2146 33.1969 10.8074C33.1969 10.4003 33.0383 10.0174 32.7504 9.72958L31.6096 8.58879C31.3217 8.30092 30.9389 8.14234 30.5318 8.14234C30.1246 8.14234 29.7418 8.30092 29.454 8.58879L28.4579 9.58481C27.1434 8.67936 25.6517 8.01371 24.046 7.6516V6.17944H24.6521C25.4727 6.17944 26.1403 5.51179 26.1403 4.69121V2.6208C26.1403 1.80015 25.4727 1.13251 24.6521 1.13251H17.8004C16.9798 1.13251 16.3122 1.80015 16.3122 2.6208V4.69114C16.3122 5.51173 16.9798 6.17937 17.8004 6.17937H18.4064V7.65565C16.8081 8.01876 15.3231 8.68288 14.0137 9.58475L13.0177 8.58872C12.7299 8.30085 12.347 8.14227 11.94 8.14227C11.5327 8.14227 11.15 8.30085 10.8621 8.58872L9.72132 9.72951C9.12706 10.3238 9.12706 11.2909 9.72132 11.8852L9.8979 12.0618H5.19077C4.82407 12.0618 4.52671 12.3591 4.52671 12.7258C4.52671 13.0926 4.82407 13.3899 5.19077 13.3899H10.3845C9.88966 14.1868 9.48 15.0417 9.16863 15.9423H0.664061C0.297367 15.9423 0 16.2396 0 16.6064C0 16.9732 0.297367 17.2705 0.664061 17.2705H8.78898C8.60165 18.0942 8.4942 18.9477 8.47521 19.8229H4.24999C3.8833 19.8229 3.58593 20.1202 3.58593 20.487C3.58593 20.8537 3.8833 21.151 4.24999 21.151H8.51492C8.58671 22.0299 8.74801 22.8836 8.98946 23.7035H3.32031C2.95361 23.7035 2.65624 24.0008 2.65624 24.3675C2.65624 24.7343 2.95361 25.0316 3.32031 25.0316H9.46181C11.3938 29.63 15.9436 32.8675 21.2358 32.8675C28.274 32.8675 34 27.1415 34 20.1033C34 17.4246 33.1699 14.9364 31.7543 12.8812ZM30.3931 9.5279C30.4406 9.48042 30.4947 9.47046 30.5318 9.47046C30.5689 9.47046 30.623 9.48042 30.6705 9.5279L31.8113 10.6687C31.8588 10.7162 31.8688 10.7704 31.8688 10.8074C31.8688 10.8445 31.8588 10.8987 31.8112 10.9461L30.9382 11.8192C30.5031 11.3104 30.0288 10.8361 29.52 10.401L30.3931 9.5279ZM17.6403 4.69121V2.6208C17.6403 2.53248 17.7122 2.46063 17.8004 2.46063H24.6521C24.7403 2.46063 24.8122 2.53248 24.8122 2.6208V4.69114C24.8122 4.77947 24.7403 4.85125 24.6521 4.85125H23.382H19.0704H17.8004C17.7122 4.85132 17.6403 4.77947 17.6403 4.69121ZM19.7345 6.17944H22.7179V7.42568C22.2315 7.36917 21.7372 7.33916 21.2359 7.33916C20.7279 7.33916 20.2272 7.3699 19.7346 7.42787L19.7345 6.17944ZM10.6604 10.6686L11.8012 9.52784C11.8486 9.48036 11.9028 9.4704 11.9399 9.4704C11.9769 9.4704 12.0311 9.48036 12.0786 9.52784L12.9516 10.4009C12.4428 10.836 11.9686 11.3103 11.5335 11.8191L10.6604 10.9461C10.5839 10.8696 10.5839 10.7451 10.6604 10.6686ZM21.2358 31.5393C14.93 31.5393 9.79975 26.4091 9.79975 20.1033C9.79975 13.7974 14.93 8.66721 21.2358 8.66721C27.5417 8.66721 32.6719 13.7974 32.6719 20.1033C32.6719 26.4091 27.5417 31.5393 21.2358 31.5393Z"
        fill="#FF6838"></path>
      <path
        d="M25.6188 14.7811L22.4797 17.9202C22.1126 17.7102 21.6881 17.5895 21.2358 17.5895C19.8497 17.5895 18.722 18.7171 18.722 20.1033C18.722 21.4894 19.8497 22.617 21.2358 22.617C22.6219 22.617 23.7495 21.4894 23.7495 20.1033C23.7495 19.6509 23.6288 19.2265 23.4188 18.8594L26.5579 15.7203C26.8172 15.461 26.8172 15.0405 26.5579 14.7811C26.2985 14.5218 25.8782 14.5218 25.6188 14.7811ZM21.2358 21.289C20.582 21.289 20.0502 20.7571 20.0502 20.1034C20.0502 19.4496 20.5821 18.9177 21.2358 18.9177C21.8895 18.9177 22.4214 19.4496 22.4214 20.1034C22.4214 20.7571 21.8896 21.289 21.2358 21.289Z"
        fill="#FF6838"></path>
      <path
        d="M21.2361 11.4937C21.4107 11.4937 21.582 11.4226 21.7055 11.2991C21.829 11.1756 21.9001 11.0042 21.9001 10.8296C21.9001 10.6549 21.8291 10.4836 21.7055 10.3601C21.582 10.2366 21.4107 10.1655 21.2361 10.1655C21.0614 10.1655 20.8901 10.2366 20.7666 10.3601C20.643 10.4836 20.572 10.6549 20.572 10.8296C20.572 11.0049 20.643 11.1756 20.7666 11.2991C20.8901 11.4226 21.0614 11.4937 21.2361 11.4937Z"
        fill="#FF6838"></path>
      <path
        d="M21.2361 28.7128C21.0614 28.7128 20.8901 28.7838 20.7666 28.9073C20.643 29.0309 20.572 29.2022 20.572 29.3768C20.572 29.5521 20.643 29.7228 20.7666 29.8463C20.8901 29.9705 21.0614 30.0409 21.2361 30.0409C21.4107 30.0409 21.582 29.9705 21.7055 29.8463C21.829 29.7228 21.9001 29.5515 21.9001 29.3768C21.9001 29.2022 21.8291 29.0309 21.7055 28.9073C21.582 28.7838 21.4107 28.7128 21.2361 28.7128Z"
        fill="#FF6838"></path>
      <path
        d="M14.6784 12.8815C14.5038 12.8815 14.3325 12.9525 14.2089 13.076C14.0854 13.1996 14.0144 13.3709 14.0144 13.5455C14.0144 13.7208 14.0854 13.8915 14.2089 14.0157C14.3325 14.1392 14.5038 14.2096 14.6784 14.2096C14.8531 14.2096 15.0244 14.1392 15.1479 14.0157C15.2714 13.8915 15.3425 13.7208 15.3425 13.5455C15.3425 13.3709 15.2714 13.2002 15.1479 13.076C15.0244 12.9525 14.8531 12.8815 14.6784 12.8815Z"
        fill="#FF6838"></path>
      <path
        d="M27.7937 25.9967C27.6183 25.9967 27.4477 26.0678 27.3235 26.1913C27.2 26.3148 27.1296 26.4861 27.1296 26.6608C27.1296 26.8354 27.2 27.0067 27.3235 27.1303C27.4477 27.2538 27.6183 27.3248 27.7937 27.3248C27.9683 27.3248 28.1396 27.2538 28.2631 27.1303C28.3866 27.0067 28.4577 26.8354 28.4577 26.6608C28.4577 26.4861 28.3867 26.3148 28.2631 26.1913C28.1396 26.0678 27.9683 25.9967 27.7937 25.9967Z"
        fill="#FF6838"></path>
      <path
        d="M14.6784 25.9967C14.5038 25.9967 14.3325 26.0678 14.2089 26.1913C14.0854 26.3148 14.0144 26.4861 14.0144 26.6608C14.0144 26.8354 14.0854 27.0067 14.2089 27.1303C14.3325 27.2538 14.5038 27.3248 14.6784 27.3248C14.8531 27.3248 15.0244 27.2538 15.1479 27.1303C15.2714 27.0067 15.3425 26.8354 15.3425 26.6608C15.3425 26.4861 15.2714 26.3148 15.1479 26.1913C15.0244 26.0678 14.8531 25.9967 14.6784 25.9967Z"
        fill="#FF6838"></path>
      <path
        d="M11.9625 19.4391C11.7872 19.4391 11.6165 19.5101 11.493 19.6337C11.3689 19.7572 11.2984 19.9285 11.2984 20.1031C11.2984 20.2778 11.3689 20.4491 11.493 20.5726C11.6165 20.6968 11.7872 20.7672 11.9625 20.7672C12.1371 20.7672 12.3084 20.6968 12.432 20.5726C12.5554 20.4491 12.6265 20.2778 12.6265 20.1031C12.6265 19.9285 12.5555 19.7572 12.432 19.6337C12.3084 19.5101 12.1371 19.4391 11.9625 19.4391Z"
        fill="#FF6838"></path>
      <path
        d="M30.9791 19.6337C30.8556 19.5101 30.6843 19.4391 30.5096 19.4391C30.3343 19.4391 30.1636 19.5101 30.0402 19.6337C29.9167 19.7572 29.8456 19.9285 29.8456 20.1031C29.8456 20.2785 29.9166 20.4491 30.0402 20.5726C30.1636 20.6962 30.335 20.7672 30.5096 20.7672C30.6843 20.7672 30.8556 20.6962 30.9791 20.5726C31.1026 20.4491 31.1737 20.2778 31.1737 20.1031C31.1736 19.9285 31.1026 19.7572 30.9791 19.6337Z"
        fill="#FF6838"></path>
      <path
        d="M0.664062 23.7037C0.489414 23.7037 0.318086 23.7741 0.19457 23.8976C0.0710547 24.0218 0 24.1925 0 24.3678C0 24.5424 0.0709883 24.7131 0.19457 24.8373C0.318086 24.9608 0.489414 25.0319 0.664062 25.0319C0.838711 25.0319 1.01004 24.9608 1.13349 24.8373C1.257 24.7138 1.32812 24.5424 1.32812 24.3678C1.32812 24.1925 1.25707 24.0212 1.13349 23.8976C1.01004 23.7741 0.838711 23.7037 0.664062 23.7037Z"
        fill="#FF6838"></path>
      <path
        d="M30.3142 18.087C30.6656 17.9823 30.8657 17.6124 30.761 17.2609C30.2915 15.6857 29.425 14.236 28.2553 13.0687C27.0853 11.9013 25.6336 11.038 24.057 10.572C23.7054 10.468 23.3359 10.6689 23.232 11.0206C23.128 11.3722 23.3288 11.7417 23.6806 11.8456C26.4825 12.6737 28.6536 14.84 29.4882 17.6402C29.574 17.9284 29.8382 18.1147 30.1243 18.1147C30.187 18.1148 30.2509 18.1058 30.3142 18.087Z"
        fill="#FF6838"></path>
    </g>
    <defs>
      <clipPath id="clip0_0_379">
        <rect width="34" height="34" fill="white"></rect>
      </clipPath>
    </defs>
  </symbol>
  <symbol fill="none" xmlns="http://www.w3.org/2000/svg" viewBox="0 0 22 22" id="icon-timer">
    <g opacity="0.9">
      <path
        d="M11.5748 2.5401V1.58126C11.5748 1.41919 11.5104 1.26375 11.3958 1.14914C11.2812 1.03454 11.1257 0.970154 10.9637 0.970154C10.8016 0.970154 10.6462 1.03454 10.5315 1.14914C10.4169 1.26375 10.3526 1.41919 10.3526 1.58126V2.5456C5.55045 2.87926 1.74445 6.88968 1.74445 11.7752C1.74445 16.8777 5.89664 21.0299 11 21.0299C16.1034 21.0299 20.2556 16.8777 20.2556 11.7752C20.2556 6.86524 16.4114 2.83801 11.5748 2.5401ZM11 19.8077C6.57039 19.8077 2.96667 16.2039 2.96667 11.7752C2.96667 7.34588 6.57039 3.74246 11 3.74246C15.4297 3.74246 19.0334 7.34588 19.0334 11.7752C19.0334 16.2039 15.4297 19.8077 11 19.8077Z"
        fill="#31352B"></path>
      <path
        d="M7.86296 17.3216C5.86799 16.1901 4.62866 14.0644 4.62866 11.7749C4.62866 11.6056 4.49208 11.4693 4.3231 11.4693C4.15413 11.4693 4.01755 11.6056 4.01755 11.7749C4.01755 14.2841 5.37574 16.6133 7.56169 17.8536C7.63223 17.8935 7.71576 17.9038 7.79389 17.8822C7.87202 17.8606 7.93836 17.8088 7.97831 17.7382C8.01826 17.6677 8.02855 17.5842 8.00692 17.506C7.98529 17.4279 7.93351 17.3616 7.86296 17.3216Z"
        fill="#31352B"></path>
      <path
        d="M9.52923 18.1598C9.41091 18.129 9.29343 18.0949 9.17693 18.0578C9.10021 18.0348 9.01754 18.0429 8.94672 18.0803C8.87589 18.1176 8.82257 18.1813 8.79822 18.2576C8.77387 18.3339 8.78044 18.4167 8.81653 18.4882C8.85261 18.5597 8.91531 18.6141 8.99115 18.6399C9.11826 18.6808 9.24598 18.7175 9.37646 18.7508C9.4549 18.771 9.53817 18.7593 9.60796 18.7181C9.67775 18.677 9.72835 18.6098 9.74862 18.5314C9.75868 18.4926 9.76098 18.4522 9.75539 18.4125C9.7498 18.3728 9.73643 18.3346 9.71605 18.3001C9.69567 18.2656 9.66868 18.2354 9.63662 18.2113C9.60456 18.1873 9.56807 18.1698 9.52923 18.1598Z"
        fill="#31352B"></path>
      <path
        d="M18.8854 5.72794C19.0002 5.84236 19.1557 5.90652 19.3177 5.90629C19.4798 5.90606 19.6351 5.84146 19.7495 5.72671C19.864 5.61196 19.9281 5.45646 19.9279 5.2944C19.9277 5.13235 19.8631 4.97703 19.7483 4.8626L18.1616 3.27983C18.1048 3.22311 18.0374 3.17814 17.9632 3.1475C17.889 3.11686 17.8095 3.10114 17.7293 3.10126C17.649 3.10137 17.5695 3.11731 17.4955 3.14816C17.4214 3.17901 17.3541 3.22417 17.2975 3.28105C17.1831 3.39585 17.119 3.55134 17.1193 3.71336C17.1195 3.87538 17.184 4.03068 17.2987 4.14516L18.8854 5.72794Z"
        fill="#31352B"></path>
      <path
        d="M11.5746 11.6612V6.77569C11.5746 6.61362 11.5102 6.45818 11.3956 6.34357C11.281 6.22897 11.1256 6.16458 10.9635 6.16458C10.8014 6.16458 10.646 6.22897 10.5314 6.34357C10.4168 6.45818 10.3524 6.61362 10.3524 6.77569V11.9252C10.3524 12.0936 10.4401 12.254 10.5623 12.3692L12.3507 14.0406C12.469 14.1518 12.6196 14.2074 12.7702 14.2074C12.8521 14.2075 12.9331 14.1905 13.008 14.1575C13.0828 14.1244 13.15 14.0761 13.2051 14.0155C13.4376 13.7699 13.4168 13.3833 13.1714 13.1517L11.5746 11.6612Z"
        fill="#31352B"></path>
    </g>
  </symbol>
  <symbol fill="inherit" xmlns="http://www.w3.org/2000/svg" viewBox="0 0 21 17" id="icon-twitter">
    <path
      d="M20.5263 1.98086C19.7715 2.30648 18.95 2.54082 18.1039 2.6321C18.9824 2.11021 19.6402 1.28571 19.954 0.313295C19.1297 0.80367 18.2266 1.14753 17.2849 1.32962C16.8913 0.908848 16.4153 0.573641 15.8865 0.344888C15.3577 0.116135 14.7874 -0.00126247 14.2113 1.02382e-05C11.8802 1.02382e-05 10.0054 1.88959 10.0054 4.20839C10.0054 4.534 10.0448 4.85962 10.109 5.17291C6.61845 4.99036 3.50534 3.3228 1.43568 0.769655C1.05857 1.41378 0.86095 2.14718 0.863383 2.89358C0.863383 4.35393 1.60589 5.6416 2.73816 6.39891C2.0709 6.37263 1.41926 6.18923 0.836248 5.86362V5.91542C0.836248 7.9604 2.2818 9.6551 4.20838 10.0449C3.84664 10.1388 3.47452 10.1869 3.10078 10.1879C2.82696 10.1879 2.56795 10.1608 2.30647 10.1238C2.8393 11.7914 4.39092 13.0026 6.23856 13.042C4.79301 14.1743 2.98237 14.8403 1.01633 14.8403C0.663572 14.8403 0.337953 14.828 0 14.7885C1.86491 15.9849 4.07763 16.6756 6.46057 16.6756C14.1965 16.6756 18.4295 10.2669 18.4295 4.70422C18.4295 4.52167 18.4295 4.33913 18.4172 4.15658C19.2362 3.55715 19.954 2.81464 20.5263 1.98086Z"
      fill="inherit"></path>
  </symbol>
  <symbol fill="none" xmlns="http://www.w3.org/2000/svg" viewBox="0 0 24 20" id="quotes">
    <path
      d="M5.21739 9.56522C6.49275 9.68116 7.53623 10.1739 8.34782 11.0435C9.15942 11.913 9.56522 13.0145 9.56522 14.3478C9.56522 15.7971 9.13043 16.9855 8.26087 17.913C7.3913 18.7826 6.28986 19.2174 4.95652 19.2174C3.44928 19.2174 2.23188 18.6667 1.30435 17.5652C0.434783 16.4638 0 14.7536 0 12.4348C0 7.97101 1.47826 4.11594 4.43478 0.869564C5.01449 0.289855 5.68116 0 6.43478 0C7.07246 0 7.62319 0.231884 8.08696 0.695653C8.55072 1.10145 8.78261 1.5942 8.78261 2.17391C8.78261 2.81159 8.55072 3.36232 8.08696 3.82609C6.57971 5.3913 5.62319 7.30435 5.21739 9.56522ZM19.6522 9.56522C20.9275 9.68116 21.971 10.1739 22.7826 11.0435C23.5942 11.913 24 13.0145 24 14.3478C24 15.7971 23.5652 16.9855 22.6957 17.913C21.8261 18.7826 20.7246 19.2174 19.3913 19.2174C17.8841 19.2174 16.6667 18.6667 15.7391 17.5652C14.8696 16.4638 14.4348 14.7536 14.4348 12.4348C14.4348 7.97101 15.913 4.11594 18.8696 0.869564C19.4493 0.289855 20.1159 0 20.8696 0C21.5072 0 22.058 0.231884 22.5217 0.695653C22.9855 1.10145 23.2174 1.5942 23.2174 2.17391C23.2174 2.81159 22.9855 3.36232 22.5217 3.82609C21.0145 5.3913 20.058 7.30435 19.6522 9.56522Z"
      fill="#C2C2C2"></path>
  </symbol>
  <symbol fill="inherit" xmlns="http://www.w3.org/2000/svg" viewBox="0 0 24 24" id="icon-arrow-right">
    <path
      d="M13.121 6.293C12.9335 6.48053 12.8282 6.73484 12.8282 7C12.8282 7.26516 12.9335 7.51947 13.121 7.707L16.413 11L6 11.007C5.73478 11.007 5.48043 11.1124 5.29289 11.2999C5.10536 11.4874 5 11.7418 5 12.007C5 12.2722 5.10536 12.5266 5.29289 12.7141C5.48043 12.9016 5.73478 13.007 6 13.007L16.414 13L13.121 16.293C13.0255 16.3852 12.9493 16.4956 12.8969 16.6176C12.8445 16.7396 12.8169 16.8708 12.8157 17.0036C12.8146 17.1364 12.8399 17.2681 12.8902 17.391C12.9405 17.5138 13.0147 17.6255 13.1086 17.7194C13.2025 17.8133 13.3141 17.8875 13.437 17.9378C13.5599 17.9881 13.6916 18.0134 13.8244 18.0123C13.9572 18.0111 14.0884 17.9835 14.2104 17.9311C14.3324 17.8787 14.4428 17.8025 14.535 17.707L18.121 14.122C18.3996 13.8434 18.6207 13.5127 18.7715 13.1487C18.9222 12.7847 18.9999 12.3945 18.9999 12.0005C18.9999 11.6065 18.9222 11.2163 18.7715 10.8523C18.6207 10.4883 18.3996 10.1576 18.121 9.879L14.535 6.293C14.3475 6.10553 14.0932 6.00021 13.828 6.00021C13.5628 6.00021 13.3085 6.10553 13.121 6.293Z"
      fill="inherit"></path>
  </symbol>
  <symbol fill="inherit" xmlns="http://www.w3.org/2000/svg" viewBox="0 0 44 44" id="icon-asia">
    <g clip-path="url(#clip0_0_199)">
      <g clip-path="url(#clip1_0_199)" fill="inherit">
        <path
          d="M15.132 13.567h2.124a1 1 0 011 1v1.465a.644.644 0 101.29 0v-1.465a2.292 2.292 0 00-2.29-2.29h-2.124a.984.984 0 010-1.965h4.711a2.275 2.275 0 002.272-2.273 2.275 2.275 0 00-2.272-2.272h-3.77a.645.645 0 000 1.29h3.77a.984.984 0 010 1.965h-4.711a2.275 2.275 0 00-2.273 2.272 2.275 2.275 0 002.273 2.273zm-7.743 4.325h2.108c.544 0 .987.443.987.988v1.454a.644.644 0 101.29 0V18.88a2.279 2.279 0 00-2.277-2.277H7.39a.972.972 0 010-1.94h2.465a.645.645 0 100-1.29H7.389a2.262 2.262 0 00-2.26 2.26 2.262 2.262 0 002.26 2.26zm18.263 8.921a.645.645 0 100-1.29.645.645 0 000 1.29zm3.18 1.46a.645.645 0 100-1.289.645.645 0 000 1.29zm1.891 2.235a.645.645 0 100-1.29.645.645 0 000 1.29zm-2.664-5.242a.644.644 0 100-1.29.644.644 0 000 1.29zm-2.149 5.672a.645.645 0 100-1.29.645.645 0 000 1.29z">
        </path>
        <path
          d="M42.911 22.81h-1.828l.904-1.867A2.507 2.507 0 0044 18.49a2.507 2.507 0 00-2.102-2.47c-1.315-2.37-3.885-4.149-7.001-4.86v-.048a.644.644 0 00-1.264-.176 13.86 13.86 0 00-1.197-.1.644.644 0 00-1.163 0 14.2 14.2 0 00-1.197.1.644.644 0 00-1.264.176v.049c-3.116.71-5.686 2.49-7.001 4.859a2.506 2.506 0 00-2.093 2.685c-2.975.277-5.649 1.52-7.655 3.386h-4.05a.908.908 0 00-.69.318H5.43a2.118 2.118 0 00-1.957-1.337 2.106 2.106 0 00-2.082 2.397 2.107 2.107 0 00-1.066 3.104 2.106 2.106 0 001.778 3.229c.878 0 1.648-.554 1.958-1.337h1.704a.91.91 0 00.586.623l2.02.686a10.897 10.897 0 00-.002 1.223c-.316.076-.61.207-.873.383a2.701 2.701 0 00-1.51-.46 2.721 2.721 0 00-2.717 2.719l.002.068h-.754c-.426 0-.803.24-.985.624a1.08 1.08 0 00.144 1.156l1.934 2.35c.207.252.514.397.84.397h27.26a.644.644 0 100-1.29H4.545l-1.604-1.948h39.544l-1.603 1.949h-6.164a.645.645 0 100 1.289h6.258c.327 0 .633-.145.84-.397l1.934-2.35a1.08 1.08 0 00.144-1.156 1.079 1.079 0 00-.984-.624h-.638a5.411 5.411 0 00.64-3.671.645.645 0 00-.52-.52 5.409 5.409 0 00-5.008 1.731c-.37-.2-.79-.316-1.237-.325v-1.226h.688a1.98 1.98 0 001.977-1.977v-.865h4.1c.6 0 1.088-.488 1.088-1.088V23.9c0-.6-.488-1.088-1.089-1.088zM6.291 33.707H4.56l-.002-.068a1.43 1.43 0 012.053-1.284 2.7 2.7 0 00-.323 1.284c0 .023.002.045.003.068zm32.225-1.784a4.117 4.117 0 013.184-1.195 4.118 4.118 0 01-1.005 2.98h-1.063l.881-.881a.645.645 0 10-.911-.912l-.914.913a2.71 2.71 0 00-.348-.717c.057-.064.115-.127.176-.188zm-13.013-17.98a10.714 10.714 0 013.309-1.452v.663a.644.644 0 101.29 0v-.918c.364-.053.735-.087 1.108-.106v1.024a.645.645 0 001.289 0V12.13c.373.02.743.054 1.109.106v.918a.645.645 0 001.289 0v-.663c1.206.308 2.333.799 3.309 1.452.95.637 1.724 1.406 2.288 2.256a2.526 2.526 0 00-.604.375 2.506 2.506 0 00-1.607-.587c-.595 0-1.163.215-1.607.587a2.506 2.506 0 00-1.607-.587c-.595 0-1.163.215-1.607.587a2.506 2.506 0 00-1.608-.587 2.51 2.51 0 00-1.607.587 2.506 2.506 0 00-1.607-.587 2.51 2.51 0 00-1.607.587 2.506 2.506 0 00-1.607-.587 2.51 2.51 0 00-1.607.587 2.524 2.524 0 00-.605-.375c.565-.85 1.339-1.62 2.29-2.256zm-3.291 3.333c.43 0 .832.233 1.05.607a.645.645 0 001.114 0 1.22 1.22 0 011.05-.607c.43 0 .832.233 1.05.607a.645.645 0 001.115 0 1.219 1.219 0 011.05-.607c.43 0 .832.233 1.049.607a.645.645 0 001.115 0 1.22 1.22 0 011.05-.607c.43 0 .832.233 1.049.607a.645.645 0 001.115 0 1.22 1.22 0 011.05-.607c.43 0 .832.233 1.05.607a.645.645 0 001.114 0 1.22 1.22 0 011.05-.607c.43 0 .832.233 1.05.607a.645.645 0 001.114 0c.218-.374.62-.607 1.05-.607a1.215 1.215 0 010 2.427c-.43 0-.832-.232-1.05-.607a.645.645 0 00-1.114 0 1.22 1.22 0 01-1.05.608c-.43 0-.833-.233-1.05-.608a.645.645 0 00-1.115 0c-.217.375-.62.608-1.05.608-.43 0-.832-.233-1.049-.608a.645.645 0 00-1.115 0c-.217.375-.62.608-1.05.608a1.22 1.22 0 01-1.05-.608.645.645 0 00-1.114 0 1.22 1.22 0 01-1.05.608 1.22 1.22 0 01-1.05-.608.645.645 0 00-1.114 0 1.22 1.22 0 01-.54.493 13.366 13.366 0 00-4.927-.942 1.215 1.215 0 011.202-1.37zM8.392 23.38h2.472a11.78 11.78 0 00-.712.983h-1.76v-.983zm-2.66 3.796H3.558a.644.644 0 00-.643.59.818.818 0 01-.81.747.815.815 0 01-.519-1.443.645.645 0 000-.993.815.815 0 01.519-1.443c.42 0 .776.327.81.746a.644.644 0 00.643.59h2.176v1.206zm.221-2.494H4.061a2.129 2.129 0 00-1.36-1.248.813.813 0 111.583-.327.645.645 0 00.642.591h2.177v.665h-.46a.909.909 0 00-.69.319zm4.48 9.025H7.58a1.43 1.43 0 011.427-1.497 1.43 1.43 0 011.428 1.429l-.002.068zm19.879 0h-2.244l-.002-.068a1.43 1.43 0 012.439-1.01 2.704 2.704 0 00-.196 1.01c0 .023.002.045.003.068zm-.817-2.786a2.721 2.721 0 00-2.719 2.718c0 .023.002.045.003.068H11.722l.002-.068c0-1.273-.88-2.344-2.063-2.638a9.734 9.734 0 01-.016-.795l6.592 2.239a4.113 4.113 0 003.753-.556 4.106 4.106 0 001.732-3.375c0-.484-.083-.96-.247-1.413a.645.645 0 00-1.212.44c.113.311.17.639.17.973a2.83 2.83 0 01-1.195 2.327 2.83 2.83 0 01-2.587.383l-9.629-3.27v-2.302h10.55c.323 0 .641.055.946.162a.644.644 0 10.427-1.217 4.142 4.142 0 00-1.373-.234h-5.845c2.056-2.676 5.438-4.428 9.256-4.428 6.253 0 11.34 4.696 11.34 10.468 0 .206-.006.412-.02.616a2.72 2.72 0 00-1.042.556 2.705 2.705 0 00-1.766-.654zm4.959 2.786h-2.853a1.43 1.43 0 011.427-1.497c.787 0 1.428.64 1.428 1.429 0 .023 0 .046-.002.068zm.404-2.486a2.72 2.72 0 00-.297.175 2.706 2.706 0 00-.964-.413 10.977 10.977 0 00-.01-1.287h1.271v1.525zm2.665 2.418c0 .023-.002.045-.003.068h-1.777l.002-.068a2.7 2.7 0 00-.313-1.266 1.43 1.43 0 012.09 1.265zm0-5.92c0 .38-.309.688-.688.688h-3.407a10.96 10.96 0 00-.404-1.553h4.499v.865zm5.188-2.154H32.493a11.526 11.526 0 00-.853-1.464h2.735a.644.644 0 100-1.29h-3.756a12.413 12.413 0 00-2.077-1.82 2.46 2.46 0 001.705-.586 2.507 2.507 0 001.607.588c.595 0 1.163-.215 1.608-.588a2.506 2.506 0 001.607.588c.594 0 1.162-.215 1.607-.588a2.506 2.506 0 001.607.588c.594 0 1.162-.215 1.607-.588.215.18.459.323.72.423l-.96 1.984h-2.267a.644.644 0 100 1.289h5.328v1.464z">
        </path>
      </g>
    </g>
    <defs>
      <clipPath id="clip0_0_199">
        <path fill="#fff" d="M0 0h44v44H0z"></path>
      </clipPath>
      <clipPath id="clip1_0_199">
        <path fill="#fff" d="M0 0h44v44H0z"></path>
      </clipPath>
    </defs>
  </symbol>
  <symbol fill="inherit" xmlns="http://www.w3.org/2000/svg" viewBox="0 0 44 44" id="icon-burger">
    <g clip-path="url(#clip0_0_161)" fill="inherit">
      <path
        d="M44 20.336c0-1.69-1.09-3.128-2.602-3.653-.232-5.241-2.189-9.263-5.825-11.966C32.254 2.251 27.688 1 22 1 16.312 1 11.746 2.25 8.427 4.717 4.791 7.42 2.834 11.442 2.602 16.683A3.873 3.873 0 000 20.336c0 .99.374 1.893.988 2.578A3.851 3.851 0 000 25.492c0 1.7 1.103 3.146 2.63 3.663.553 5.89 5.56 10.517 11.636 10.517h15.468c6.076 0 11.084-4.627 11.636-10.517A3.873 3.873 0 0044 25.492a3.85 3.85 0 00-.988-2.578A3.852 3.852 0 0044 20.336zM22 3.578c7.393 0 16.151 2.28 16.803 12.89H5.197C5.849 5.859 14.607 3.579 22 3.579zM3.867 19.047h36.266c.71 0 1.289.578 1.289 1.289 0 .71-.578 1.289-1.29 1.289H3.868a1.29 1.29 0 01-1.289-1.29c0-.71.578-1.288 1.29-1.288zm25.867 18.047H14.266c-4.581 0-8.383-3.367-9.016-7.735h1.195c.862 0 1.134.293 1.677.878.667.718 1.58 1.7 3.566 1.7 2 0 2.889-.993 3.538-1.718.513-.572.77-.86 1.618-.86.848 0 1.105.288 1.617.86.65.725 1.54 1.718 3.539 1.718 2 0 2.89-.993 3.538-1.718.513-.572.77-.86 1.618-.86.848 0 1.105.288 1.618.86.65.725 1.539 1.718 3.538 1.718 2 0 2.89-.993 3.539-1.718.513-.572.77-.86 1.618-.86h1.281c-.633 4.367-4.435 7.735-9.016 7.735zM40.133 26.78h-2.664c-2 0-2.89.993-3.539 1.719-.512.572-.77.86-1.617.86-.848 0-1.106-.288-1.618-.86-.65-.726-1.539-1.719-3.539-1.719s-2.889.993-3.538 1.719c-.513.572-.77.86-1.618.86-.848 0-1.105-.288-1.618-.86-.65-.726-1.538-1.719-3.538-1.719-2 0-2.89.993-3.539 1.719-.512.572-.77.86-1.617.86-.862 0-1.135-.294-1.677-.878-.667-.718-1.58-1.7-3.566-1.7H3.867a1.29 1.29 0 01-1.289-1.29c0-.71.578-1.289 1.29-1.289h36.265a1.29 1.29 0 010 2.578z">
      </path>
      <path
        d="M14.266 13.89a1.289 1.289 0 100-2.577 1.289 1.289 0 000 2.578zm15.468 0a1.289 1.289 0 100-2.577 1.289 1.289 0 000 2.578zm-5.156-2.577a1.289 1.289 0 100-2.579 1.289 1.289 0 000 2.579zm-5.156-2.579a1.289 1.289 0 100-2.578 1.289 1.289 0 000 2.578z">
      </path>
    </g>
    <defs>
      <clipPath id="clip0_0_161">
        <path fill="#fff" d="M0 0h44v44H0z"></path>
      </clipPath>
    </defs>
  </symbol>
  <symbol fill="none" xmlns="http://www.w3.org/2000/svg" viewBox="0 0 24 24" id="icon-call">
    <g id="Iconly/Light/Calling">
      <g id="Calling">
        <path id="Stroke 1" d="M14.353 2.5C18.054 2.911 20.978 5.831 21.393 9.532" stroke="inherit" stroke-width="1.5"
          stroke-linecap="round" stroke-linejoin="round"></path>
        <path id="Stroke 3" d="M14.353 6.04297C16.124 6.38697 17.508 7.77197 17.853 9.54297" stroke="inherit"
          stroke-width="1.5" stroke-linecap="round" stroke-linejoin="round"></path>
        <path id="Stroke 5" fill-rule="evenodd" clip-rule="evenodd"
          d="M11.0315 12.4724C15.0205 16.4604 15.9254 11.8467 18.4653 14.3848C20.9138 16.8328 22.3222 17.3232 19.2188 20.4247C18.8302 20.737 16.3613 24.4943 7.68447 15.8197C-0.993406 7.144 2.76157 4.67244 3.07394 4.28395C6.18377 1.17385 6.66682 2.58938 9.11539 5.03733C11.6541 7.5765 7.04254 8.48441 11.0315 12.4724Z"
          stroke="inherit" stroke-width="1.5" stroke-linecap="round" stroke-linejoin="round"></path>
      </g>
    </g>
  </symbol>
  <symbol fill="none" xmlns="http://www.w3.org/2000/svg" viewBox="0 0 21 20" id="icon-cart">
    <path
      d="M1 1.176l2.08.356.963 11.34a1.79 1.79 0 001.8 1.633h10.909a1.794 1.794 0 001.785-1.528l.949-6.482a1.328 1.328 0 00-1.135-1.501c-.064-.009-14.937-.014-14.937-.014m8.961 3.653h2.773"
      stroke="inherit" stroke-width="1.5" stroke-linecap="round" stroke-linejoin="round"></path>
    <path clip-rule="evenodd"
      d="M5.404 17.932a.54.54 0 01.544.538.541.541 0 01-.544.539.541.541 0 01-.544-.54.54.54 0 01.544-.537zm11.281 0c.3 0 .545.24.545.538a.542.542 0 01-.545.539.541.541 0 01-.544-.54.54.54 0 01.544-.537z"
      stroke="inherit" stroke-width="1.5" stroke-linecap="round" stroke-linejoin="round"></path>
  </symbol>
  <symbol fill="none" xmlns="http://www.w3.org/2000/svg" viewBox="0 0 34 34" id="icon-delivery">
    <path
      d="M6.51761 24.469L6.92521 25.4394C7.21271 25.3215 7.51213 25.2343 7.81837 25.1792L7.62839 24.1455C7.24754 24.2139 6.87517 24.3224 6.51761 24.469Z"
      fill="#00AAFF"></path>
    <path
      d="M3.72678 27.0754L4.68303 27.5332C5.01397 26.8584 5.51739 26.2808 6.1435 25.8573L5.54385 24.9903C4.76485 25.5172 4.13851 26.2359 3.72678 27.0754Z"
      fill="#00AAFF"></path>
    <path
      d="M32.9375 26.7798C32.9381 25.8755 32.6008 25.0028 31.9904 24.3293L31.1987 25.0296C31.5128 25.376 31.7279 25.7989 31.8219 26.2547H28.1562C28.0688 26.2547 27.9827 26.276 27.9056 26.3168C27.8285 26.3576 27.7628 26.4166 27.7142 26.4885L25.747 29.4052H24.4375V27.8299C24.4386 26.8555 24.8308 25.9212 25.5279 25.2321C26.2251 24.5431 27.1703 24.1555 28.1562 24.1544H29.2188C29.7412 24.1535 30.2521 24.3056 30.6871 24.5916L31.2755 23.7171C30.8167 23.4153 30.2955 23.2187 29.75 23.1417V21.5289C29.75 21.3897 29.694 21.2561 29.5944 21.1577C29.4948 21.0592 29.3596 21.0039 29.2188 21.0039C28.6554 21.0032 28.1152 20.7818 27.7168 20.388C27.3185 19.9942 27.0944 19.4604 27.0938 18.9035V16.8032H28.6875C28.8284 16.8032 28.9635 16.7479 29.0632 16.6494C29.1628 16.5509 29.2188 16.4174 29.2188 16.2781V12.6025C29.2188 12.4633 29.1628 12.3297 29.0632 12.2313C28.9635 12.1328 28.8284 12.0775 28.6875 12.0775H27.7505C27.5285 12.0778 27.3076 12.1079 27.0938 12.1669V11.5524C27.0938 11.4331 27.0527 11.3173 26.9773 11.2242L25.2392 9.07661C25.4669 8.69699 25.5488 8.24905 25.4699 7.81467C25.391 7.38029 25.1566 6.98847 24.8095 6.71083C24.4624 6.43318 24.0259 6.28825 23.5796 6.30253C23.1333 6.31681 22.7071 6.48935 22.379 6.7886C22.0508 7.08785 21.8425 7.49383 21.7922 7.93235C21.7419 8.37086 21.853 8.81262 22.105 9.17689C22.3571 9.54116 22.7334 9.80361 23.1651 9.91627C23.5968 10.0289 24.0551 9.98427 24.4563 9.79046L26.0312 11.7365V12.3991L23.6957 11.6296C23.5427 11.5775 23.3819 11.5514 23.2201 11.5524H18.8381L16.316 8.64401C16.527 8.49911 16.6994 8.3059 16.8185 8.08087C16.9377 7.85584 16.9999 7.60567 17 7.35171V7.15113L17.7689 6.77117C17.8362 6.73787 17.8957 6.69079 17.9432 6.63305C17.9908 6.57531 18.0254 6.50824 18.0447 6.43628C18.064 6.36432 18.0677 6.28912 18.0553 6.21567C18.043 6.14222 18.015 6.0722 17.9733 6.01026L17.1007 4.71659C17.2218 4.69347 17.3311 4.6294 17.4096 4.53536C17.4882 4.44132 17.5312 4.32318 17.5312 4.20122C17.5303 3.36595 17.1941 2.56516 16.5966 1.97453C15.999 1.38391 15.1888 1.05168 14.3438 1.05072C13.3433 1.05072 12.417 1.33472 11.728 2.08723C11.4295 2.41379 11.2034 2.79844 11.0641 3.21648C10.9249 3.63453 10.8757 4.07673 10.9196 4.51469L11.0333 5.63784C11.0812 6.1221 11.3153 6.56971 11.6875 6.8882V16.8032C11.6872 17.1721 11.7859 17.5344 11.9734 17.8534H11.1562C10.9753 17.8533 10.7956 17.8838 10.625 17.9437V11.0273C10.6245 10.6097 10.4565 10.2093 10.1577 9.91394C9.85889 9.61863 9.45379 9.45251 9.03125 9.45204H2.65625C2.23371 9.45251 1.82861 9.61863 1.52982 9.91394C1.23104 10.2093 1.06297 10.6097 1.0625 11.0273V13.6527H2.125V12.6025H9.5625V17.8534H2.125V14.7029H1.0625V18.9904C1.06238 19.2363 1.14967 19.4745 1.30913 19.6634C1.46858 19.8522 1.69008 19.9797 1.93495 20.0236L6.90625 20.917V22.1492C6.45584 22.2523 6.01601 22.3962 5.59234 22.5791H2.65625C2.51535 22.5791 2.38023 22.6344 2.2806 22.7329C2.18097 22.8314 2.125 22.9649 2.125 23.1042V25.5965C1.43087 26.7486 1.06382 28.0643 1.0625 29.4052C1.0625 29.5445 1.11847 29.678 1.2181 29.7765C1.31773 29.875 1.45285 29.9303 1.59375 29.9303H4.02893C4.34641 30.7059 4.89103 31.3702 5.59297 31.838C6.29491 32.3057 7.12219 32.5556 7.96875 32.5556C8.81531 32.5556 9.64259 32.3057 10.3445 31.838C11.0465 31.3702 11.5911 30.7059 11.9086 29.9303H20.8409C21.211 29.9301 21.577 29.8535 21.9154 29.7056C22.2539 29.5577 22.5574 29.3416 22.8066 29.0711L23.375 28.4529V29.9303C23.375 30.0695 23.431 30.2031 23.5306 30.3016C23.6302 30.4 23.7654 30.4554 23.9062 30.4554H25.007C25.4748 31.2561 26.1969 31.882 27.0612 32.2358C27.9255 32.5896 28.8838 32.6517 29.7875 32.4124C30.6912 32.173 31.4897 31.6457 32.0592 30.9121C32.6287 30.1785 32.9375 29.2797 32.9375 28.355C32.9379 27.9529 32.8796 27.5527 32.7644 27.167C32.819 27.118 32.8626 27.0582 32.8924 26.9915C32.9222 26.9248 32.9375 26.8527 32.9375 26.7798ZM22.8438 8.13934C22.8438 7.98356 22.8905 7.83128 22.978 7.70176C23.0656 7.57223 23.1901 7.47128 23.3357 7.41167C23.4813 7.35205 23.6415 7.33646 23.7961 7.36685C23.9507 7.39724 24.0927 7.47225 24.2041 7.5824C24.3155 7.69255 24.3914 7.8329 24.4222 7.98568C24.4529 8.13846 24.4372 8.29683 24.3768 8.44075C24.3165 8.58467 24.2144 8.70768 24.0833 8.79422C23.9523 8.88077 23.7982 8.92696 23.6406 8.92696C23.4293 8.92674 23.2268 8.84368 23.0774 8.69602C22.928 8.54836 22.844 8.34816 22.8438 8.13934ZM15.2436 26.7798C14.7233 26.7792 14.2245 26.5746 13.8566 26.211C13.4888 25.8474 13.2818 25.3544 13.2812 24.8402C13.2812 24.3247 13.4131 23.8425 13.7607 23.4459C14.0705 23.0934 14.4982 22.8627 14.9658 22.7961C15.5302 22.7165 16.0467 22.4383 16.4204 22.0126C16.794 21.5869 16.9998 21.0423 17 20.4788C17.0001 20.4098 16.9864 20.3414 16.9597 20.2777C16.9329 20.214 16.8937 20.1561 16.8443 20.1074C16.9346 19.9207 16.9867 19.7183 16.9978 19.5118C17.0088 19.3052 16.9785 19.0985 16.9086 18.9035H18.3515L16.0202 24.8943C15.9639 25.0386 15.9358 25.1921 15.9375 25.3468V26.7798H15.2436ZM17 25.7296H19.6562C19.7702 25.7297 19.8811 25.766 19.9725 25.8332C20.064 25.9003 20.1312 25.9947 20.1642 26.1025C20.1972 26.2103 20.1943 26.3257 20.1559 26.4317C20.1175 26.5377 20.0456 26.6287 19.9509 26.6913C19.8174 26.7492 19.6732 26.7793 19.5274 26.7798H17V25.7296ZM21.1226 25.6377C21.017 25.3934 20.8507 25.1794 20.6391 25.0154C20.4275 24.8515 20.1776 24.7429 19.9123 24.6998L22.1124 19.4645C22.3079 18.9992 22.3843 18.4935 22.3347 17.992C22.285 17.4906 22.111 17.009 21.828 16.59C21.545 16.1709 21.1618 15.8274 20.7123 15.5898C20.2628 15.3522 19.7609 15.2279 19.2512 15.228H17V14.3953L17.1556 14.5491C17.2049 14.5978 17.2635 14.6365 17.3279 14.6629C17.3924 14.6893 17.4615 14.7029 17.5312 14.7029H22.9351C22.85 14.9405 22.8238 15.1947 22.8588 15.4444C22.8938 15.6941 22.9888 15.9318 23.1361 16.1376C23.2833 16.3433 23.4783 16.5112 23.7048 16.627C23.9312 16.7429 24.1825 16.8033 24.4375 16.8032H24.439C24.0927 17.257 23.9056 17.8101 23.9062 18.3785V22.4518C23.9054 22.7301 23.7936 22.997 23.595 23.1943L21.1226 25.6377ZM24.4375 15.753C24.3324 15.753 24.2297 15.7222 24.1424 15.6645C24.055 15.6068 23.9869 15.5248 23.9467 15.4289C23.9065 15.3329 23.896 15.2274 23.9165 15.1255C23.937 15.0237 23.9876 14.9301 24.0618 14.8567C24.1361 14.7832 24.2308 14.7332 24.3339 14.713C24.4369 14.6927 24.5437 14.7031 24.6408 14.7428C24.7379 14.7826 24.8208 14.8499 24.8792 14.9362C24.9376 15.0226 24.9688 15.1241 24.9688 15.228C24.9686 15.3672 24.9126 15.5006 24.813 15.5991C24.7134 15.6975 24.5783 15.7529 24.4375 15.753ZM28.1562 13.1276V15.753H27.0938V13.2911C27.2958 13.1842 27.5213 13.128 27.7505 13.1276H28.1562ZM26.0312 15.228C26.0313 14.9759 25.9702 14.7276 25.853 14.5037C25.7358 14.2799 25.566 14.0871 25.3578 13.9416C25.1496 13.7961 24.9091 13.7021 24.6565 13.6676C24.4039 13.633 24.1466 13.6589 23.9062 13.743V12.806L26.0312 13.5061V15.228ZM18.5938 12.6025H22.8438V13.6527H17.7513L14.7194 10.656L13.9681 11.3986L15.9375 13.3451V15.228H12.75V8.92696H15.1619L18.1904 12.4192C18.2403 12.4767 18.3021 12.5229 18.3718 12.5545C18.4414 12.5862 18.5171 12.6025 18.5938 12.6025ZM12.5158 2.79189C13.0014 2.2615 13.6459 2.10089 14.3438 2.10089C14.8147 2.10148 15.2722 2.25643 15.6446 2.54147C16.0169 2.82652 16.2832 3.22556 16.4015 3.67613H14.3438C14.2029 3.67613 14.0677 3.73146 13.9681 3.82993C13.8685 3.9284 13.8125 4.06196 13.8125 4.20122V5.44829C13.8117 5.66666 13.7262 5.87642 13.5737 6.03439C13.4211 6.19235 13.2131 6.28649 12.9925 6.29743C12.7718 6.30836 12.5553 6.23526 12.3875 6.09317C12.2197 5.95108 12.1135 5.75081 12.0906 5.53361L11.9769 4.41046C11.9458 4.11835 11.9777 3.82303 12.0706 3.54402C12.1635 3.26501 12.3152 3.00865 12.5158 2.79189ZM12.9492 7.35171C13.4598 7.35119 13.9493 7.15049 14.3104 6.79364C14.6714 6.43679 14.8745 5.95295 14.875 5.44829V4.7263H15.9375C15.9375 4.82998 15.9685 4.93134 16.0267 5.01759L16.7554 6.09808L16.2308 6.35721C16.1427 6.40085 16.0686 6.46787 16.0168 6.55077C15.9649 6.63368 15.9375 6.72919 15.9375 6.82663V7.35171C15.9373 7.49093 15.8813 7.62439 15.7817 7.72283C15.6821 7.82127 15.5471 7.87664 15.4062 7.8768H12.75V7.34141C12.8162 7.34819 12.8827 7.35162 12.9492 7.35171ZM12.75 16.8032V16.2781H19.2512C19.5861 16.2781 19.9159 16.3598 20.2112 16.516C20.5065 16.6721 20.7584 16.8978 20.9443 17.1732C21.1302 17.4485 21.2446 17.765 21.2771 18.0944C21.3097 18.4239 21.2595 18.7563 21.1311 19.062L18.7704 24.6794H17.2423L19.6209 18.567C19.6518 18.4874 19.6627 18.4016 19.6526 18.317C19.6425 18.2324 19.6117 18.1514 19.5629 18.0812C19.5141 18.0109 19.4487 17.9535 19.3724 17.9138C19.2961 17.8741 19.2112 17.8534 19.125 17.8534H13.8125C13.5308 17.853 13.2608 17.7423 13.0616 17.5454C12.8624 17.3485 12.7503 17.0816 12.75 16.8032ZM11.1562 18.9035H15.4062C15.5471 18.9035 15.6823 18.9589 15.7819 19.0573C15.8815 19.1558 15.9375 19.2894 15.9375 19.4286C15.9375 19.5679 15.8815 19.7014 15.7819 19.7999C15.6823 19.8984 15.5471 19.9537 15.4062 19.9537H11.1562C11.0154 19.9537 10.8802 19.8984 10.7806 19.7999C10.681 19.7014 10.625 19.5679 10.625 19.4286C10.625 19.2894 10.681 19.1558 10.7806 19.0573C10.8802 18.9589 11.0154 18.9035 11.1562 18.9035ZM2.125 11.5524V11.0273C2.12516 10.8881 2.18118 10.7546 2.28077 10.6562C2.38037 10.5577 2.5154 10.5024 2.65625 10.5022H9.03125C9.1721 10.5024 9.30713 10.5577 9.40673 10.6562C9.50632 10.7546 9.56234 10.8881 9.5625 11.0273V11.5524H2.125ZM2.125 18.9035H9.5625V19.9537H7.48538L2.125 18.9904V18.9035ZM3.84426 23.6293C3.61366 23.8143 3.39435 24.0127 3.1875 24.2234V23.6293H3.84426ZM7.96875 31.5055C7.40983 31.5031 6.86124 31.3564 6.37723 31.0802C5.89322 30.8039 5.49055 30.4075 5.20904 29.9303H6.56452C6.9522 30.2686 7.45157 30.4554 7.96875 30.4554C8.48593 30.4554 8.9853 30.2686 9.37298 29.9303H10.7285C10.447 30.4075 10.0443 30.8039 9.56027 31.0802C9.07626 31.3564 8.52767 31.5031 7.96875 31.5055ZM22.0203 28.3649C21.8708 28.5271 21.6887 28.6567 21.4856 28.7454C21.2825 28.8342 21.063 28.88 20.8409 28.8801H2.14698C2.26123 27.5093 2.81959 26.2113 3.7392 25.179C4.6588 24.1466 5.89066 23.4347 7.25196 23.1491C7.38929 23.1196 7.52939 23.1045 7.66992 23.1042H11.1562V22.054H7.96875V21.0039H15.8246C15.7346 21.2035 15.5948 21.3774 15.4182 21.5091C15.2417 21.6408 15.0342 21.726 14.8152 21.7568C14.0946 21.8593 13.4353 22.2146 12.9579 22.7579C12.4438 23.343 12.2188 24.0749 12.2188 24.8403C12.2183 25.5517 12.4757 26.2398 12.9444 26.7798H8.5V27.8299H19.5274C20.0902 27.8258 20.6292 27.6052 21.03 27.2147L24.3463 23.9369C24.7435 23.5421 24.9671 23.0085 24.9688 22.4518V18.3785C24.9691 18.0528 25.0715 17.7352 25.2617 17.4693C25.4519 17.2034 25.7207 17.0021 26.0312 16.8932V18.9035C26.0322 19.6478 26.2993 20.3678 26.7854 20.9363C27.2714 21.5048 27.9452 21.8852 28.6875 22.0103V23.1042C28.3577 23.1042 28.0202 23.0845 27.6923 23.1268C26.6985 23.2243 25.7603 23.6262 25.0089 24.2764C24.2576 24.9267 23.7306 25.7927 23.5016 26.7535L22.0203 28.3649ZM28.4405 27.3049H28.4675L29.1087 27.9387C29.2202 28.0493 29.2829 28.1989 29.2832 28.355C29.2832 28.4715 29.2482 28.5853 29.1828 28.6821C29.1173 28.779 29.0243 28.8544 28.9155 28.899C28.8066 28.9436 28.6868 28.9552 28.5713 28.9325C28.4557 28.9098 28.3496 28.8537 28.2663 28.7713L27.7773 28.2881L28.4405 27.3049ZM28.6875 31.5055C28.2272 31.5041 27.7726 31.4047 27.3546 31.214C26.9366 31.0234 26.5651 30.746 26.2653 30.4007C26.3494 30.3602 26.4212 30.2984 26.4733 30.2216L26.9338 29.539C27.1896 29.9097 27.5589 30.1898 27.9875 30.3379C28.4161 30.4861 28.8815 30.4945 29.3153 30.3621C29.7492 30.2297 30.1287 29.9633 30.3981 29.6021C30.6676 29.2409 30.8128 28.8038 30.8125 28.355C30.8133 28.0439 30.7432 27.7365 30.6074 27.4558C30.5826 27.4042 30.5553 27.3542 30.5266 27.3049H31.6934C31.863 27.7801 31.9148 28.2886 31.8446 28.7878C31.7743 29.2869 31.584 29.7621 31.2896 30.1735C30.9952 30.585 30.6052 30.9207 30.1525 31.1524C29.6997 31.3842 29.1974 31.5053 28.6875 31.5055Z"
      fill="#00AAFF"></path>
    <path d="M4.25 13.6522H3.1875V16.8027H4.25V13.6522Z" fill="#00AAFF"></path>
  </symbol>
  <symbol fill="inherit" xmlns="http://www.w3.org/2000/svg" viewBox="0 0 44 44" id="icon-dish">
    <g clip-path="url(#clip0_0_228)" fill="inherit">
      <path
        d="M31.158 14.657l-.47-1.531c-.599-1.74-2.51-2.671-4.27-2.08a3.347 3.347 0 00-2.105 2.08l-.47 1.531a8.506 8.506 0 00-.244 3.987 3.754 3.754 0 001.954 2.613l-.527 11.65c-.07.65.143 1.3.587 1.785a2.583 2.583 0 003.78 0 2.248 2.248 0 00.587-1.736l-.53-11.7a3.753 3.753 0 001.95-2.612 8.506 8.506 0 00-.242-3.987zm-1.202 3.735a2.307 2.307 0 01-1.522 1.731.725.725 0 00-.474.711l.557 12.236a.833.833 0 01-.22.657 1.143 1.143 0 01-1.594 0 .864.864 0 01-.216-.705l.553-12.188a.725.725 0 00-.474-.71 2.307 2.307 0 01-1.522-1.732 7.068 7.068 0 01.202-3.31l.47-1.532a1.908 1.908 0 013.568 0l.47 1.532a7.078 7.078 0 01.202 3.31zM19.8 10.872a.73.73 0 00-.733.725v6.223l-1.986 1.963a.72.72 0 00-.214.548l.641 12.685a.98.98 0 01-.277.738c-.401.4-1.055.403-1.46.007l-.007-.007a.98.98 0 01-.277-.738l.646-12.685a.72.72 0 00-.214-.548l-1.986-1.963v-6.223a.73.73 0 00-.733-.725.73.73 0 00-.733.725v6.524a.72.72 0 00.214.512l1.97 1.948-.625 12.364c-.067 1.351.987 2.5 2.354 2.565 1.366.066 2.528-.976 2.594-2.326.004-.08.004-.16 0-.239l-.625-12.364 1.97-1.948a.72.72 0 00.214-.512v-6.524a.73.73 0 00-.733-.725z">
      </path>
      <path
        d="M15.4 10.872a.73.73 0 00-.733.725v5.799c0 .4.328.724.733.724a.73.73 0 00.733-.724v-5.799a.73.73 0 00-.733-.725zm2.2 0a.73.73 0 00-.733.725v5.799c0 .4.328.724.733.724a.73.73 0 00.733-.724v-5.799a.73.73 0 00-.733-.725z">
      </path>
      <path
        d="M22 0C9.85 0 0 9.735 0 21.745c0 12.009 9.85 21.744 22 21.744s22-9.735 22-21.744C43.986 9.74 34.145.014 22 0zm0 42.04c-11.34 0-20.533-9.087-20.533-20.295C1.467 10.536 10.66 1.45 22 1.45c11.34 0 20.533 9.086 20.533 20.295C42.52 32.948 33.335 42.027 22 42.04z">
      </path>
      <path
        d="M24.38 35.351a.731.731 0 00-.829-.648h.003a13.618 13.618 0 01-3.108 0 .732.732 0 00-.814.635.727.727 0 00.643.805 14.94 14.94 0 003.447 0 .727.727 0 00.658-.792zm8.84-22.946a.74.74 0 00-1.036-.087.72.72 0 00-.088 1.02 12.936 12.936 0 01-.778 17.648.72.72 0 00-.002 1.025.74.74 0 001.037.002 14.374 14.374 0 00.867-19.608zM17.086 9.582l-.002-.001h-.002.004z">
      </path>
      <path
        d="M25.46 7.653a14.96 14.96 0 00-8.633.524.722.722 0 00.258 1.404.742.742 0 00.256-.047 13.47 13.47 0 017.773-.472.724.724 0 10.345-1.41zM12.65 30.95a12.887 12.887 0 01-3.85-9.205 12.85 12.85 0 012.523-7.675.72.72 0 00-.145-1.015.739.739 0 00-1.04.161 14.371 14.371 0 001.472 18.76.74.74 0 001.039 0 .72.72 0 000-1.026z">
      </path>
    </g>
    <defs>
      <clipPath id="clip0_0_228">
        <path fill="#fff" d="M0 0h44v43.489H0z"></path>
      </clipPath>
    </defs>
  </symbol>
  <symbol fill="inherit" xmlns="http://www.w3.org/2000/svg" viewBox="0 0 10 21" id="icon-facebook">
    <path
      d="M2.54678 20.5263V10.8948H0V7.42695H2.54678V4.46499C2.54678 2.13745 4.05118 0 7.51762 0C8.92113 0 9.95896 0.13455 9.95896 0.13455L9.87718 3.3729C9.87718 3.3729 8.81876 3.3626 7.66377 3.3626C6.41371 3.3626 6.21344 3.93867 6.21344 4.89481V7.42695H9.97655L9.81281 10.8948H6.21344V20.5263H2.54678Z"
      fill="inherit"></path>
  </symbol>
  <symbol fill="inherit" xmlns="http://www.w3.org/2000/svg" viewBox="0 0 20 20" id="icon-instagram">
    <path
      d="M9.74756 6.49862C7.95723 6.49862 6.49618 7.95967 6.49618 9.75C6.49618 11.5403 7.95723 13.0014 9.74756 13.0014C11.5379 13.0014 12.9989 11.5403 12.9989 9.75C12.9989 7.95967 11.5379 6.49862 9.74756 6.49862ZM19.4993 9.75C19.4993 8.40359 19.5115 7.06938 19.4359 5.72541C19.3602 4.16435 19.0041 2.77891 17.8626 1.63739C16.7186 0.493433 15.3356 0.139757 13.7746 0.0641433C12.4282 -0.0114703 11.094 0.00072551 9.75 0.00072551C8.40359 0.00072551 7.06938 -0.0114703 5.72541 0.0641433C4.16435 0.139757 2.77892 0.495872 1.63739 1.63739C0.493433 2.78135 0.139757 4.16435 0.0641433 5.72541C-0.0114703 7.07182 0.00072551 8.40603 0.00072551 9.75C0.00072551 11.094 -0.0114703 12.4306 0.0641433 13.7746C0.139757 15.3356 0.495873 16.7211 1.63739 17.8626C2.78135 19.0066 4.16435 19.3602 5.72541 19.4359C7.07182 19.5115 8.40603 19.4993 9.75 19.4993C11.0964 19.4993 12.4306 19.5115 13.7746 19.4359C15.3356 19.3602 16.7211 19.0041 17.8626 17.8626C19.0066 16.7186 19.3602 15.3356 19.4359 13.7746C19.5139 12.4306 19.4993 11.0964 19.4993 9.75ZM9.74756 14.7527C6.97913 14.7527 4.74487 12.5184 4.74487 9.75C4.74487 6.98157 6.97913 4.74731 9.74756 4.74731C12.516 4.74731 14.7503 6.98157 14.7503 9.75C14.7503 12.5184 12.516 14.7527 9.74756 14.7527ZM14.9551 5.71077C14.3088 5.71077 13.7868 5.18879 13.7868 4.54242C13.7868 3.89604 14.3088 3.37407 14.9551 3.37407C15.6015 3.37407 16.1235 3.89604 16.1235 4.54242C16.1237 4.6959 16.0936 4.84792 16.035 4.98976C15.9763 5.13159 15.8903 5.26047 15.7817 5.369C15.6732 5.47753 15.5443 5.56358 15.4025 5.62223C15.2606 5.68087 15.1086 5.71096 14.9551 5.71077Z"
      fill="inherit"></path>
  </symbol>
  <symbol fill="none" xmlns="http://www.w3.org/2000/svg" viewBox="0 0 24 24" id="icon-loc">
    <g id="Iconly/Light/Location">
      <g id="Location">
        <path id="Stroke 1" fill-rule="evenodd" clip-rule="evenodd"
          d="M14.5 10.5005C14.5 9.11924 13.3808 8 12.0005 8C10.6192 8 9.5 9.11924 9.5 10.5005C9.5 11.8808 10.6192 13 12.0005 13C13.3808 13 14.5 11.8808 14.5 10.5005Z"
          stroke="inherit" stroke-width="1.5" stroke-linecap="round" stroke-linejoin="round"></path>
        <path id="Stroke 3" fill-rule="evenodd" clip-rule="evenodd"
          d="M11.9995 21C10.801 21 4.5 15.8984 4.5 10.5633C4.5 6.38664 7.8571 3 11.9995 3C16.1419 3 19.5 6.38664 19.5 10.5633C19.5 15.8984 13.198 21 11.9995 21Z"
          stroke="inherit" stroke-width="1.5" stroke-linecap="round" stroke-linejoin="round"></path>
      </g>
    </g>
  </symbol>
  <symbol fill="none" xmlns="http://www.w3.org/2000/svg" viewBox="0 0 24 24" id="icon-message">
    <g id="Iconly/Light/Message">
      <g id="Message">
        <path id="Stroke 1"
          d="M17.9026 8.85107L13.4593 12.4641C12.6198 13.1301 11.4387 13.1301 10.5992 12.4641L6.11841 8.85107"
          stroke="inherit" stroke-width="1.5" stroke-linecap="round" stroke-linejoin="round"></path>
        <path id="Stroke 3" fill-rule="evenodd" clip-rule="evenodd"
          d="M16.9089 21C19.9502 21.0084 22 18.5095 22 15.4384V8.57001C22 5.49883 19.9502 3 16.9089 3H7.09114C4.04979 3 2 5.49883 2 8.57001V15.4384C2 18.5095 4.04979 21.0084 7.09114 21H16.9089Z"
          stroke="inherit" stroke-width="1.5" stroke-linecap="round" stroke-linejoin="round"></path>
      </g>
    </g>
  </symbol>
  <symbol fill="inherit" xmlns="http://www.w3.org/2000/svg" viewBox="0 0 45 44" id="icon-pizza">
    <g clip-path="url(#clip0_0_172)" fill="inherit">
      <path
        d="M43.858 43.752a.859.859 0 01-.892.198L7.27 31.223a4.698 4.698 0 01-4.255.338A4.706 4.706 0 01.472 25.42 46.081 46.081 0 0110.51 10.396 46.079 46.079 0 0125.533.358 4.675 4.675 0 0127.326 0c1.845 0 3.6 1.094 4.35 2.902a4.687 4.687 0 01-.027 3.65l12.418 36.31a.86.86 0 01-.209.89zM12.676 31.325l3.783 1.349a2.186 2.186 0 00-.264-3.235 2.176 2.176 0 00-1.62-.434 2.176 2.176 0 00-1.452.838c-.328.428-.484.95-.447 1.482zM30.087 3.56a2.985 2.985 0 00-3.896-1.614C15.188 6.504 6.618 15.074 2.06 26.077a2.962 2.962 0 000 2.282 2.962 2.962 0 001.614 1.614 2.963 2.963 0 002.282 0A2.962 2.962 0 007.57 28.36a38.432 38.432 0 018.373-12.531 38.434 38.434 0 0112.53-8.373 2.985 2.985 0 001.614-3.896zm7.635 26.06a2.176 2.176 0 00-1.685.855 2.176 2.176 0 00-.434 1.62 2.187 2.187 0 003.47 1.476l-1.35-3.95zm1.922 5.621a3.913 3.913 0 01-5.745-2.922 3.884 3.884 0 01.774-2.89 3.88 3.88 0 012.478-1.479l-1.708-4.994-1.964 1.507a.86.86 0 01-1.047-1.364l2.424-1.86-4.442-12.99a4.682 4.682 0 01-1.283.795c-9.107 3.772-16.2 10.866-19.973 19.973a4.7 4.7 0 01-.482.882l2.301.82a3.88 3.88 0 01.783-1.922 3.883 3.883 0 013.11-1.53c.854 0 1.681.279 2.37.808a3.884 3.884 0 011.497 2.591c.122.93-.095 1.85-.582 2.613l10.683 3.809.405-.978a.86.86 0 111.588.658l-.372.898 11.405 4.066-2.22-6.491z">
      </path>
      <path
        d="M9.394 20.945zM8.087 23.08a40.676 40.676 0 00-2.237 4.567.86.86 0 01-1.588-.657 42.393 42.393 0 012.332-4.761.86.86 0 111.493.851zm18.918 9.921a3.918 3.918 0 01-4.386-3.365 3.914 3.914 0 013.88-4.42 3.918 3.918 0 013.872 3.4A3.914 3.914 0 0127.005 33zm1.662-4.161a2.195 2.195 0 00-2.458-1.886 2.193 2.193 0 00-1.886 2.457 2.194 2.194 0 002.458 1.886 2.193 2.193 0 001.886-2.457zm-1.885-6.528a3.918 3.918 0 01-4.386-3.365 3.883 3.883 0 01.774-2.891 3.883 3.883 0 013.105-1.53 3.918 3.918 0 013.872 3.4 3.914 3.914 0 01-3.365 4.386zm1.661-4.162a2.195 2.195 0 00-2.458-1.886 2.177 2.177 0 00-1.451.838 2.176 2.176 0 00-.434 1.62 2.195 2.195 0 002.457 1.886 2.193 2.193 0 001.886-2.458zm-7.329 7.722l-2.642.348a.859.859 0 11-.224-1.704l2.641-.348a.86.86 0 01.225 1.704zm-1.34-6.342l-.233 1.772a.86.86 0 11-1.704-.224l.233-1.772a.86.86 0 111.704.224z">
      </path>
    </g>
    <defs>
      <clipPath id="clip0_0_172">
        <path fill="#fff" transform="matrix(1 0 0 -1 .113 44)" d="M0 0h44v44H0z"></path>
      </clipPath>
    </defs>
  </symbol>
  <symbol fill="inherit" xmlns="http://www.w3.org/2000/svg" viewBox="0 0 40 40" id="icon-prev-arrow">
    <circle cx="20" cy="20" r="18.5" fill="inherit" fill-opacity="0.01" stroke="none" stroke-width="3"></circle>
    <path
      d="M21.1968 29.0492L13.4508 21.3033C12.8497 20.699 12.8497 19.7231 13.4508 19.1189L21.1968 11.3729C21.7761 10.8757 22.6328 10.8757 23.2122 11.3729C23.8614 11.9291 23.9372 12.9082 23.3811 13.5573L16.7351 20.2033L23.3811 26.8648C23.9822 27.469 23.9822 28.445 23.3811 29.0492C22.7769 29.6503 21.8009 29.6503 21.1968 29.0492Z"
      fill="inherit"></path>
  </symbol>
  <symbol fill="inherit" xmlns="http://www.w3.org/2000/svg" viewBox="0 0 17 16" id="icon-frame">
    <path
      d="M10.318 14.3001C10.0587 14.3001 9.81927 14.1616 9.70234 13.9406L7.66076 10.0822C7.54864 9.87034 7.5679 9.61684 7.71028 9.42119L11.0058 5.20009L6.53816 8.31359C6.33112 8.44879 6.06285 8.46569 5.83861 8.36039L1.75613 6.43184C1.51125 6.31549 1.36199 6.07304 1.37712 5.81434C1.39156 5.55564 1.56835 5.32944 1.82561 5.24039L14.895 0.690388C15.1461 0.603938 15.4288 0.660488 15.6193 0.840538C15.8092 1.01929 15.8711 1.28709 15.7782 1.52499L10.9632 13.875C10.8683 14.1181 10.6296 14.2851 10.3558 14.2988C10.3434 14.2994 10.3304 14.3001 10.318 14.3001Z"
      fill="inherit"></path>
  </symbol>
  <symbol fill="inherit" xmlns="http://www.w3.org/2000/svg" viewBox="0 0 18 18" id="icon-close-btn">
    <g clip-path="url(#clip0_239_502)">
      <path
        d="M10.0551 9.00517L17.7709 1.28931C18.0687 1.0017 18.077 0.527154 17.7894 0.229355C17.5018 -0.0684448 17.0272 -0.0767024 16.7294 0.210907C16.7232 0.216924 16.7171 0.223074 16.711 0.229355L8.99508 7.94522L1.27921 0.229311C0.981408 -0.0582986 0.506861 -0.050041 0.219251 0.247758C-0.0613304 0.538267 -0.0613304 0.998802 0.219251 1.28931L7.93512 9.00517L0.219251 16.721C-0.0734093 17.0137 -0.0734093 17.4883 0.219251 17.781C0.511956 18.0736 0.986503 18.0736 1.27921 17.781L8.99508 10.0651L16.7109 17.781C17.0087 18.0686 17.4833 18.0603 17.7709 17.7625C18.0514 17.472 18.0514 17.0115 17.7709 16.721L10.0551 9.00517Z"
        fill="inherit"></path>
    </g>
    <defs>
      <clipPath id="clip0_239_502">
        <rect width="18" height="18" fill="white"></rect>
      </clipPath>
    </defs>
  </symbol>
</svg>